<?xml version="1.0"?>

<!-- Generator: Adobe Illustrator 16.0.3, SVG Export Plug-In . SVG Version: 6.00 Build 0)  -->

<svg version="1.1" id="Layer_1" xmlns="http://www.w3.org/2000/svg" xmlns:xlink="http://www.w3.org/1999/xlink" x="0px" y="0px" width="500px" height="500px" viewBox="0 0 500 500" enable-background="new 0 0 500 500" xml:space="preserve">
<g>
	<g>
		<path fill="#111111" d="M232.459,274.804h-9.086l-1.557-10.398h-11.051l-1.559,10.398h-8.266l9.17-57.299h13.18L232.459,274.804z
			 M211.91,256.63h8.676l-4.339-28.976L211.91,256.63z"></path>
		<path fill="#111111" d="M246.621,217.504h27.83v8.184h-9.41v49.116h-9.011v-49.116h-9.409V217.504z"></path>
		<path fill="#111111" d="M293.359,231.255c0-9.169,4.83-14.405,13.671-14.405s13.669,5.236,13.669,14.405v29.792
			c0,9.172-4.828,14.408-13.669,14.408s-13.671-5.236-13.671-14.408V231.255z M302.365,261.626c0,4.088,1.803,5.645,4.665,5.645
			c2.866,0,4.665-1.557,4.665-5.645v-30.945c0-4.094-1.799-5.646-4.665-5.646c-2.862,0-4.665,1.552-4.665,5.646V261.626z"></path>
		<path fill="#111111" d="M361.299,258.185l6.143-40.68h12.522v57.299h-8.515v-41.094l-6.22,41.094h-8.513l-6.711-40.52v40.52
			h-7.857v-57.299h12.523L361.299,258.185z"></path>
		<path fill="#111111" d="M402.229,217.504h9.004v57.299h-9.004V217.504z"></path>
		<path fill="#111111" d="M459.609,253.436v7.612c0,9.172-4.582,14.408-13.424,14.408s-13.426-5.236-13.426-14.408v-29.792
			c0-9.169,4.584-14.405,13.426-14.405s13.424,5.236,13.424,14.405v5.565h-8.513v-6.14c0-4.094-1.802-5.646-4.666-5.646
			s-4.663,1.552-4.663,5.646v30.945c0,4.088,1.799,5.564,4.663,5.564s4.666-1.477,4.666-5.564v-8.19H459.609z"></path>
	</g>
	<g>
		<path fill="#46D200" d="M259.068,195.26c-0.089-0.295-0.236-0.553-0.432-0.756c-0.195-0.221-0.461-0.398-0.812-0.544
			c-0.294-0.117-0.648-0.208-1.086-0.267c-0.414-0.057-0.904-0.088-1.458-0.094l-7.243-0.077l-0.109,10.112l2.488,0.025l0.039-3.449
			l4.014,0.043c0.707,0.006,1.281-0.014,1.76-0.062c0.5-0.053,0.934-0.137,1.283-0.254c0.391-0.131,0.709-0.308,0.941-0.523
			c0.238-0.221,0.422-0.49,0.541-0.801c0.096-0.27,0.156-0.562,0.178-0.877c0.018-0.261,0.023-0.548,0.027-0.852
			c0.002-0.291,0.002-0.562-0.004-0.805C259.189,195.782,259.145,195.509,259.068,195.26z M256.711,196.858
			c0,0.248-0.006,0.463-0.018,0.651c-0.006,0.138-0.033,0.218-0.07,0.284c0,0-0.055,0.036-0.234,0.072
			c-0.178,0.035-0.414,0.061-0.713,0.072c-0.338,0.014-0.738,0.016-1.182,0.011l-4.018-0.044l0.025-2.047l4.011,0.043
			c0.478,0.006,0.878,0.02,1.201,0.028c0.29,0.013,0.528,0.038,0.71,0.072c0.186,0.04,0.252,0.08,0.25,0.066
			c0.01,0.017,0.029,0.073,0.035,0.199C256.714,196.43,256.717,196.631,256.711,196.858z"></path>
		<path fill="#46D200" d="M284.964,195.496c-0.11-0.298-0.296-0.556-0.533-0.763c-0.224-0.21-0.532-0.375-0.931-0.51
			c-0.342-0.111-0.758-0.197-1.268-0.256c-0.498-0.055-1.088-0.087-1.756-0.096l-6.861-0.072l-0.109,10.11l2.488,0.027l0.036-3.449
			l4.198,0.046c0.435,0.003,0.832,0.017,1.191,0.037c0.271,0.014,0.516,0.047,0.701,0.087c0.182,0.039,0.234,0.079,0.254,0.099
			c0.012,0.035,0.035,0.121,0.043,0.266c0.008,0.186,0.008,0.399,0.006,0.654l-0.027,2.332l2.488,0.027l0.025-2.331
			c0-0.36-0.01-0.667-0.041-0.944c-0.043-0.332-0.129-0.632-0.266-0.897c-0.061-0.113-0.131-0.22-0.213-0.317
			c0.104-0.105,0.201-0.227,0.289-0.352c0.172-0.27,0.293-0.586,0.363-0.952c0.062-0.317,0.096-0.681,0.1-1.077
			c0.002-0.294,0-0.57-0.013-0.818C285.117,196.038,285.059,195.752,284.964,195.496z M280.431,198.229l-4.374-0.047l0.021-2.048
			l4.375,0.048c0.478,0.004,0.877,0.018,1.205,0.026c0.288,0.015,0.525,0.038,0.707,0.075c0.189,0.038,0.254,0.07,0.25,0.064
			c0.006,0.015,0.029,0.07,0.029,0.195c0.012,0.167,0.014,0.364,0.011,0.596c-0.003,0.249-0.011,0.465-0.021,0.649
			c-0.01,0.14-0.033,0.22-0.068,0.286c0,0-0.059,0.037-0.236,0.07c-0.178,0.037-0.417,0.061-0.711,0.074
			C281.28,198.233,280.883,198.233,280.431,198.229z"></path>
		<path fill="#46D200" d="M312.016,196.571c-0.088-0.412-0.232-0.787-0.43-1.109c-0.219-0.348-0.531-0.637-0.92-0.86
			c-0.363-0.208-0.801-0.36-1.336-0.464c-0.5-0.097-1.09-0.146-1.807-0.155l-3.281-0.033c-0.717-0.009-1.307,0.028-1.805,0.114
			c-0.539,0.09-0.982,0.234-1.346,0.431c-0.398,0.22-0.717,0.5-0.941,0.842c-0.209,0.32-0.363,0.688-0.461,1.107
			c-0.088,0.378-0.135,0.796-0.156,1.266c-0.014,0.431-0.025,0.905-0.031,1.429c-0.005,0.521-0.005,0.994,0.002,1.427
			c0.008,0.464,0.051,0.894,0.131,1.269c0.086,0.418,0.234,0.793,0.432,1.109c0.217,0.348,0.525,0.642,0.928,0.873
			c0.361,0.202,0.811,0.356,1.332,0.453c0.5,0.1,1.092,0.146,1.804,0.154l3.28,0.036c0.715,0.007,1.307-0.027,1.804-0.112
			c0.524-0.089,0.976-0.234,1.35-0.43c0.399-0.219,0.717-0.506,0.94-0.848c0.205-0.316,0.357-0.684,0.453-1.102
			c0.086-0.375,0.143-0.801,0.16-1.268c0.016-0.431,0.027-0.906,0.038-1.425c0.005-0.525,0.001-0.999-0.007-1.431
			C312.139,197.374,312.096,196.956,312.016,196.571z M307.436,202.149l-3.279-0.035c-0.455-0.005-0.848-0.019-1.159-0.05
			c-0.268-0.024-0.472-0.069-0.614-0.13c-0.092-0.038-0.154-0.082-0.189-0.129c-0.043-0.062-0.092-0.174-0.133-0.385
			c-0.041-0.229-0.066-0.523-0.072-0.872c-0.002-0.384-0.006-0.847,0-1.385c0.006-0.54,0.018-1.002,0.029-1.394
			c0.01-0.346,0.035-0.634,0.084-0.863c0.035-0.166,0.086-0.296,0.139-0.371c0.04-0.055,0.109-0.098,0.195-0.134
			c0.148-0.058,0.359-0.097,0.619-0.118c0.314-0.025,0.705-0.034,1.166-0.028l3.276,0.035c0.46,0.004,0.853,0.022,1.163,0.054
			c0.262,0.024,0.467,0.068,0.613,0.131c0.088,0.039,0.15,0.082,0.186,0.133c0.057,0.081,0.102,0.215,0.137,0.38
			c0.041,0.228,0.064,0.519,0.07,0.869c0.006,0.39,0.004,0.852,0,1.392c-0.008,0.537-0.016,0.998-0.029,1.382
			c-0.014,0.353-0.045,0.647-0.09,0.87c-0.047,0.21-0.104,0.322-0.139,0.373c-0.039,0.053-0.105,0.095-0.205,0.135
			c-0.143,0.057-0.348,0.098-0.607,0.117C308.275,202.149,307.885,202.155,307.436,202.149z"></path>
		<path fill="#46D200" d="M333.41,201.299c-0.002,0.223-0.023,0.411-0.066,0.559c-0.021,0.088-0.055,0.154-0.098,0.193
			c-0.053,0.051-0.139,0.096-0.252,0.123c-0.121,0.03-0.344,0.069-0.711,0.064l-2.543-0.027c-0.223-0.002-0.406-0.02-0.537-0.048
			c-0.037-0.009-0.043-0.019-0.059-0.03c0-0.006-0.053-0.071-0.088-0.289c-0.037-0.217-0.06-0.534-0.055-0.939l0.011-1.061
			l-2.485-0.026l-0.012,1.062c-0.004,0.589,0.021,1.074,0.084,1.49c0.074,0.487,0.24,0.898,0.496,1.228
			c0.27,0.338,0.646,0.589,1.107,0.729c0.4,0.122,0.896,0.186,1.514,0.193l2.539,0.027c0.609,0.006,1.117-0.043,1.549-0.148
			c0.482-0.115,0.887-0.316,1.197-0.594c0.324-0.285,0.559-0.656,0.699-1.092c0.125-0.389,0.191-0.849,0.195-1.369l0.076-6.871
			l-2.49-0.027L333.41,201.299z"></path>
		<polygon fill="#46D200" points="350.893,204.749 361.004,204.857 361.03,202.549 353.405,202.468 353.424,200.782 
			360.684,200.862 360.707,198.551 353.446,198.471 353.463,196.971 361.09,197.053 361.114,194.745 351.002,194.636 		"></polygon>
		<path fill="#46D200" d="M386.639,196.479c-0.156-0.302-0.367-0.566-0.623-0.779c-0.256-0.215-0.569-0.392-0.941-0.524
			c-0.338-0.126-0.744-0.219-1.195-0.28c-0.439-0.062-0.951-0.096-1.514-0.102l-2.553-0.029c-0.713-0.007-1.307,0.03-1.801,0.116
			c-0.543,0.091-0.984,0.233-1.349,0.433c-0.397,0.215-0.712,0.498-0.942,0.842c-0.208,0.313-0.361,0.688-0.461,1.105
			c-0.086,0.381-0.137,0.807-0.154,1.268c-0.016,0.429-0.029,0.901-0.034,1.428c-0.008,0.52,0,0.993,0.003,1.42
			c0.008,0.465,0.049,0.894,0.133,1.275c0.082,0.419,0.232,0.791,0.432,1.109c0.219,0.351,0.529,0.644,0.928,0.873
			c0.361,0.199,0.812,0.356,1.331,0.452c0.491,0.095,1.1,0.147,1.804,0.155l2.549,0.027c0.588,0.006,1.082-0.014,1.516-0.063
			c0.473-0.056,0.867-0.142,1.211-0.265c0.375-0.131,0.697-0.312,0.954-0.528c0.263-0.22,0.478-0.489,0.641-0.8
			c0.151-0.289,0.261-0.62,0.317-0.992c0.053-0.324,0.082-0.689,0.088-1.086l0.006-0.699l-2.485-0.027l-0.007,0.697
			c-0.002,0.277-0.02,0.514-0.044,0.707c-0.024,0.199-0.066,0.311-0.093,0.371c-0.031,0.062-0.066,0.109-0.113,0.145
			c-0.041,0.031-0.123,0.075-0.285,0.121c-0.164,0.045-0.377,0.078-0.642,0.092c-0.274,0.017-0.614,0.022-1.038,0.019l-2.551-0.026
			c-0.449-0.006-0.845-0.021-1.156-0.049c-0.266-0.028-0.473-0.072-0.617-0.133c-0.135-0.056-0.176-0.114-0.184-0.131
			c-0.045-0.056-0.1-0.171-0.138-0.383c-0.042-0.225-0.069-0.521-0.071-0.871c-0.004-0.385-0.004-0.848,0.002-1.383
			c0.006-0.543,0.016-1.007,0.027-1.393c0.009-0.35,0.039-0.643,0.086-0.866c0.035-0.163,0.084-0.296,0.139-0.372
			c0.043-0.056,0.105-0.098,0.195-0.135c0.148-0.057,0.359-0.095,0.619-0.117c0.314-0.023,0.705-0.033,1.162-0.029l2.551,0.029
			c0.521,0.006,0.955,0.027,1.29,0.068c0.334,0.035,0.513,0.115,0.608,0.172c0.061,0.037,0.135,0.096,0.189,0.249
			c0.045,0.126,0.103,0.374,0.098,0.829l-0.01,0.703l2.486,0.028l0.006-0.702c0.005-0.364-0.016-0.707-0.062-1.024
			C386.889,197.071,386.785,196.756,386.639,196.479z"></path>
		<polygon fill="#46D200" points="401.424,195.182 401.397,197.489 405.758,197.538 405.672,205.34 408.158,205.366 
			408.242,197.564 412.6,197.61 412.625,195.301 		"></polygon>
	</g>
	<path fill="#46D200" d="M104.691,245.278c-4.828,0-12.182-0.432-12.182-0.432c-0.77-0.045-1.031-0.592-0.576-1.216
		c0,0,4.562-6.282,7.871-10.217c1.635-1.936,3.947-4.497,3.947-4.497c0.518-0.574,1.361-0.574,1.881,0c0,0,2.308,2.562,3.943,4.497
		c3.312,3.935,7.875,10.217,7.875,10.217c0.454,0.624,0.195,1.171-0.574,1.216C116.877,244.846,109.518,245.278,104.691,245.278z"></path>
	<path fill="#111111" d="M176.131,239.59c-0.027-6.996-16.971-13.006-41.387-15.742c-1.461-0.064-2.223,1.014-2.244,2.05
		c-0.041,0.825,0.529,1.841,1.566,2.009c0.193,0.033,0.361,0.072,0.578,0.105c19.672,2.055,33.066,6.089,33.088,10.747
		c0.021,4.542-12.664,8.519-31.514,10.667c-4.926-8.047-10.936-16.685-17.799-25.404c-3.235-4.115-6.5-8.031-9.74-11.734
		c16.715-18.591,31.447-29.887,35.706-26.554c3.294,2.578-0.46,13.478-8.872,27.784c-0.264,0.462-0.48,1.818,0.562,2.524
		c0.982,0.666,2.309,0.298,2.887-0.636c0.082-0.143,0.234-0.362,0.318-0.506c10.367-18.119,14.562-32.391,9.586-36.285
		c-6.082-4.758-23.951,7.378-43.375,28.363v-0.006c-0.268,0.287-0.533,0.57-0.801,0.861c-0.266-0.291-0.533-0.574-0.799-0.861v0.006
		c-19.425-20.985-37.295-33.122-43.375-28.363c-4.977,3.895-0.782,18.166,9.588,36.285c0.082,0.144,0.234,0.363,0.316,0.506
		c0.578,0.934,1.904,1.302,2.889,0.636c1.041-0.706,0.824-2.062,0.561-2.524c-8.414-14.307-12.166-25.206-8.873-27.784
		c4.26-3.333,18.99,7.963,35.707,26.554c-3.24,3.703-6.506,7.619-9.74,11.734c-6.864,8.72-12.873,17.357-17.799,25.404
		c-18.85-2.148-31.537-6.125-31.513-10.667c0.021-4.658,13.414-8.692,33.087-10.747c0.219-0.033,0.385-0.072,0.578-0.105
		c1.037-0.168,1.607-1.184,1.565-2.009c-0.021-1.036-0.782-2.114-2.243-2.05c-24.417,2.736-41.357,8.746-41.387,15.742
		c-0.029,6.554,14.783,12.279,36.685,15.287c-10.263,17.997-14.376,32.144-9.421,36.022c5.365,4.197,19.92-4.764,36.615-21.354
		c0.557-0.508,0.902-1.854-0.109-2.84c-0.65-0.635-1.812-0.766-2.617-0.174c-0.314,0.23-0.613,0.527-0.832,0.734
		c-13.022,13.066-23.684,20.307-27.199,17.557c-3.42-2.67,0.744-14.119,9.826-29.185c8.496,0.915,17.855,1.433,27.691,1.472v0.002
		c0.139,0,0.273,0,0.412,0.002c0.105,0,0.211,0.002,0.317,0.002c0.022,0,0.048,0,0.069,0c0.023,0,0.049,0,0.071,0
		c0.106,0,0.212-0.002,0.318-0.002c0.136-0.002,0.272-0.002,0.411-0.002v-0.002c9.834-0.039,19.195-0.557,27.692-1.472
		c9.081,15.065,13.243,26.515,9.825,29.185c-3.516,2.75-14.178-4.49-27.199-17.557c-0.219-0.207-0.52-0.504-0.832-0.734
		c-0.805-0.592-1.967-0.461-2.617,0.174c-1.012,0.986-0.666,2.332-0.109,2.84c16.697,16.59,31.25,25.551,36.615,21.354
		c4.955-3.879,0.84-18.025-9.421-36.022C161.348,251.869,176.16,246.144,176.131,239.59z M104.919,251.098
		c-0.075,0-0.151,0.002-0.228,0.002c-0.074,0-0.149-0.002-0.227-0.002c-8.807-0.014-17.186-0.381-24.793-1.028
		c4.523-7.011,9.94-14.61,16.037-22.352c2.736-3.478,5.473-6.798,8.184-9.97v0.008c0.266-0.312,0.533-0.63,0.799-0.938
		c0.268,0.309,0.533,0.626,0.801,0.938v-0.008c2.71,3.172,5.446,6.492,8.184,9.97c6.098,7.741,11.514,15.341,16.037,22.352
		C122.105,250.716,113.727,251.084,104.919,251.098z"></path>
</g>
</svg>
