<?xml version="1.0"?>

<!-- Generator: Adobe Illustrator 17.1.0, SVG Export Plug-In . SVG Version: 6.00 Build 0)  -->

<svg id="Layer_1" xmlns="http://www.w3.org/2000/svg" xml:space="preserve" viewBox="0 0 216 216" version="1.1" y="0px" x="0px" xmlns:xlink="http://www.w3.org/1999/xlink" enable-background="new 0 0 216 216" width="216" height="216">
	<path d="m117.73 114.12h4.934v-0.868h1.156v-4.747h-7.246v4.747h1.156v0.87zm0.35-4.11h4.246v1.747h-1.156v0.868h-1.934v-0.868h-1.156v-1.75z"></path>
	<path d="m146.12 96.547c0.154-0.586-0.093-1.214-0.657-1.491l-11.897-5.822c-0.177-0.086-0.371-0.13-0.567-0.13h-48.838c-0.174 0-0.345 0.033-0.507 0.101l-13.693 5.824c-0.6 0.255-0.883 0.91-0.72 1.521-0.029 0.11-0.067 0.216-0.067 0.334v21.747c0 0.713 0.579 1.293 1.294 1.293h74.436c0.716 0 1.294-0.58 1.294-1.293v-21.747c0-0.118-0.04-0.227-0.07-0.336zm-61.705-4.858h48.285l7.97 3.902h-65.427l9.172-3.902zm59.185 25.651h-71.848v-18.842h71.848v18.842z"></path>
	<path d="m89.983 102.48h-1.157v-0.868h-4.933v0.868h-1.157v4.747h7.247v-4.75zm-1.5 3.24h-4.247v-1.747h1.157v-0.868h1.933v0.868h1.157v1.75z"></path>
	<path d="m98.483 102.48h-1.157v-0.868h-4.933v0.868h-1.157v4.747h7.247v-4.75zm-1.5 3.24h-4.247v-1.747h1.157v-0.868h1.933v0.868h1.157v1.75z"></path>
	<path d="m106.94 102.48h-1.157v-0.868h-4.933v0.868h-1.157v4.747h7.247v-4.75zm-1.5 3.24h-4.247v-1.747h1.157v-0.868h1.933v0.868h1.157v1.75z"></path>
	<path d="m115.44 102.48h-1.157v-0.868h-4.933v0.868h-1.157v4.747h7.247v-4.75zm-1.5 3.24h-4.247v-1.747h1.157v-0.868h1.933v0.868h1.157v1.75z"></path>
	<path d="m123.82 102.48h-1.157v-0.868h-4.933v0.868h-1.156v4.747h7.246v-4.75zm-1.5 3.24h-4.246v-1.747h1.156v-0.868h1.933v0.868h1.157v1.75z"></path>
	<path d="m140.53 109.35h-1.157v-0.868h-4.933v0.868h-1.156v4.747h7.246v-4.75zm-1.5 3.25h-4.246v-1.747h1.156v-0.868h1.933v0.868h1.157v1.75z"></path>
	<path d="m109.23 114.12h4.934v-0.868h1.156v-4.747h-7.247v4.747h1.157v0.87zm0.35-4.11h4.247v1.747h-1.156v0.868h-1.934v-0.868h-1.157v-1.75z"></path>
	<path d="m100.77 114.12h4.933v-0.868h1.157v-4.747h-7.247v4.747h1.157v0.87zm0.35-4.11h4.247v1.747h-1.157v0.868h-1.933v-0.868h-1.157v-1.75z"></path>
	<path d="m92.274 114.12h4.933v-0.868h1.157v-4.747h-7.247v4.747h1.157v0.87zm0.343-4.11h4.247v1.747h-1.157v0.868h-1.933v-0.868h-1.157v-1.75z"></path>
	<path d="m83.894 114.12h4.933v-0.868h1.156v-4.747h-7.246v4.747h1.157v0.87zm0.342-4.11h4.246v1.747h-1.156v0.868h-1.933v-0.868h-1.157v-1.75z"></path>
</svg>
