<?xml version="1.0" encoding="UTF-8" standalone="no"?>
<svg
   xmlns:dc="http://purl.org/dc/elements/1.1/"
   xmlns:cc="http://creativecommons.org/ns#"
   xmlns:rdf="http://www.w3.org/1999/02/22-rdf-syntax-ns#"
   xmlns:svg="http://www.w3.org/2000/svg"
   xmlns="http://www.w3.org/2000/svg"
   xmlns:xlink="http://www.w3.org/1999/xlink"
   version="1.1"
   id="Layer_1"
   x="0px"
   y="0px"
   width="199.49664"
   height="106.8147"
   viewBox="0 0 199.49664 106.81471"
   enable-background="new 0 0 305.9 191.5"
   xml:space="preserve"><metadata
     id="metadata14500"><rdf:RDF><cc:Work
         rdf:about=""><dc:format>image/svg+xml</dc:format><dc:type
           rdf:resource="http://purl.org/dc/dcmitype/StillImage" /><dc:title></dc:title></cc:Work></rdf:RDF></metadata><defs
     id="defs14498"><linearGradient
       id="linearGradient26017"><stop
         style="stop-color:#006ea9;stop-opacity:1"
         offset="0"
         id="stop26019" /><stop
         style="stop-color:#00192e;stop-opacity:1"
         offset="1"
         id="stop26021" /></linearGradient><radialGradient
       xlink:href="#linearGradient26017"
       id="radialGradient26023"
       cx="217.14703"
       cy="137.39363"
       fx="217.14703"
       fy="137.39363"
       r="216.39999"
       gradientTransform="matrix(2.7236,0,0,2.2283,-492.3226,-258.73923)"
       gradientUnits="userSpaceOnUse" /><linearGradient
       id="SVGID_176_"
       gradientUnits="userSpaceOnUse"
       x1="-402.89999"
       y1="327.89001"
       x2="-140.56"
       y2="65.553001"
       gradientTransform="translate(313.12,-23.152)"><stop
         offset="0"
         style="stop-color:#3D2986;stop-opacity:0"
         id="stop13239" /><stop
         offset="3.839397e-02"
         style="stop-color:#383E8E;stop-opacity:7.678795e-02"
         id="stop13241" /><stop
         offset="0.1094"
         style="stop-color:#2A5C9F;stop-opacity:0.2187"
         id="stop13243" /><stop
         offset="0.1804"
         style="stop-color:#0F74AF;stop-opacity:0.3609"
         id="stop13245" /><stop
         offset="0.25"
         style="stop-color:#0089BE;stop-opacity:0.5"
         id="stop13247" /><stop
         offset="0.3177"
         style="stop-color:#0099CA;stop-opacity:0.6354"
         id="stop13249" /><stop
         offset="0.3831"
         style="stop-color:#00A5D2;stop-opacity:0.7661"
         id="stop13251" /><stop
         offset="0.445"
         style="stop-color:#00ADD7;stop-opacity:0.89"
         id="stop13253" /><stop
         offset="0.5"
         style="stop-color:#00B0DA"
         id="stop13255" /><stop
         offset="1"
         style="stop-color:#94C947;stop-opacity:0"
         id="stop13257" /></linearGradient><radialGradient
       xlink:href="#SVGID_176_"
       id="radialGradient55190"
       cx="7.3435574"
       cy="-27.475264"
       fx="7.3435574"
       fy="-27.475264"
       r="180.55"
       gradientTransform="matrix(-0.85933649,-0.51524271,1.4294717,-0.28569517,172.78623,72.569708)"
       gradientUnits="userSpaceOnUse" /></defs><symbol
     id="Yellow_dot"
     viewBox="-1.1 -1.1 2.3 2.3"
     transform="translate(-54.982605,-34.189234)"><path
       d="m 1.1,0.1 c 0.1,-0.6 -0.4,-1.2 -1,-1.3 -0.6,-0.1 -1.2,0.4 -1.3,1 -0.1,0.6 0.4,1.2 1,1.3 0.6,0.1 1.3,-0.3 1.3,-1 z"
       id="path9003"
       style="fill:#fdb913" /></symbol><radialGradient
     id="SVGID_102_"
     cx="197.89999"
     cy="-100.69"
     r="515.44"
     gradientTransform="matrix(0,-0.2298,0.282,0,181.35,183.38)"
     gradientUnits="userSpaceOnUse"><stop
       offset="0"
       style="stop-color:#000000;stop-opacity:0"
       id="stop11543" /><stop
       offset="1"
       style="stop-color:#000000;stop-opacity:0.75"
       id="stop11545" /></radialGradient><path
     id="path13880"
     style="opacity:1;fill:none;stroke:url(#radialGradient55190);stroke-width:0.05;stroke-linecap:round;stroke-linejoin:round;stroke-miterlimit:4;stroke-dasharray:none"
     d="M 176.03251,121.30784 C 16.147431,-5.3837183 354.65532,-62.977414 420.15651,6.1163364 M 176.61503,118.0167 C 19.542463,-5.749248 352.356,-62.652013 418.91897,5.9165202 M 177.10064,114.74493 C 22.687778,-6.1095866 349.95982,-62.307251 417.68144,5.7167126 M 177.73913,111.48732 C 26.138728,-6.4415806 347.67548,-61.895423 416.54081,5.4975458 M 178.32167,108.19618 C 29.477815,-6.8406512 345.37617,-61.570016 415.3033,5.2977325 M 178.90419,104.90504 C 32.872838,-7.2061826 343.07685,-61.24462 414.10673,5.0450161 M 179.44577,101.6668 C 36.170967,-7.5523501 340.69564,-60.813432 412.82822,4.8981053 M 180.02833,98.375661 C 39.565994,-7.9178763 338.39631,-60.488025 411.68758,4.6789385 M 180.60973,95.083847 C 42.905068,-8.3169475 336.09702,-60.162623 410.39412,4.4455906 M 181.24818,91.826243 C 46.35604,-8.6489467 333.90955,-59.770161 409.30938,4.2599519 M 181.73383,88.554468 C 49.598242,-9.0286475 331.41648,-59.406034 407.91909,4.0459738 M 182.31749,85.263994 C 52.993282,-9.3941865 329.11715,-59.080632 406.77842,3.8267931 M 182.90001,81.972853 C 56.332339,-9.793242 326.87378,-58.7217 405.63778,3.6076257 M 183.44159,78.734614 C 59.686406,-10.105874 324.43666,-58.324037 404.30337,3.4271804 M 184.02413,75.443474 C 62.928625,-10.485582 322.13731,-57.998635 403.16273,3.2080031 M 184.60667,72.152337 C 66.323631,-10.851114 319.89395,-57.639697 401.86929,2.9746646 M 185.24514,68.894733 C 69.718671,-11.216647 317.55369,-57.261405 400.78452,2.7890212 M 185.73077,65.622958 C 73.016805,-11.562814 315.15749,-56.916644 399.45014,2.6085742 M 186.31329,62.331817 C 76.351021,-11.960906 312.91411,-56.557706 398.25357,2.3558705 M 186.95176,59.074207 C 79.746061,-12.326444 310.57384,-56.179403 397.01603,2.1560601 M 187.52946,55.784046 C 83.141084,-12.69197 308.27453,-55.854007 395.8754,1.9368799 M 188.01509,52.512259 C 86.439218,-13.038136 305.93426,-55.475709 394.63789,1.7370748 M 188.65356,49.254666 C 89.834241,-13.403671 303.59399,-55.097412 393.4563,1.5707983 M 189.23608,45.963526 C 93.229264,-13.7692 301.29467,-54.77201 392.25971,1.3180836 M 189.72175,42.691748 C 96.471467,-14.148907 298.9544,-54.393718 390.92528,1.1376365 M 190.30424,39.40061 C 99.866473,-14.514438 296.55823,-54.048957 389.72871,0.88493113 M 190.94272,36.143003 C 103.26151,-14.87997 294.31484,-53.690013 388.54714,0.71865123 M 191.52528,32.851866 C 106.55965,-15.226137 292.07146,-53.331081 387.35053,0.46594933 M 192.01089,29.580089 C 109.80185,-15.605841 289.57838,-52.96696 386.11303,0.26613543 M 192.64936,26.322483 C 113.25279,-15.937832 287.335,-52.608022 384.93143,0.09986125 M 193.23192,23.031349 c -76.64004,-39.368248 91.8597,-75.280433 190.50294,-23.18418969 M 193.81444,19.740205 c -73.82752,-36.442637 88.88098,-71.644528 188.6829,-20.09285784 M 194.30011,16.468423 C 123.28504,-17.048599 280.35515,-51.526025 381.25978,-0.55246268 M 194.93854,13.210821 C 126.68006,-17.41413 278.11177,-51.167093 380.02224,-0.75226672 M 195.5211,9.919683 C 130.01915,-17.813203 275.71556,-50.822326 378.88162,-0.9714405 M 196.00671,6.6479117 C 133.3173,-18.159364 273.31936,-50.477558 377.58818,-1.2047918 M 196.6452,3.3902992 C 136.71231,-18.524901 271.13193,-50.08509 376.40657,-1.3710584 M 197.22772,0.09916895 C 140.10733,-18.890433 268.73574,-49.740335 375.20999,-1.6237737 M 197.81026,-3.1919805 C 143.44642,-19.289492 266.43643,-49.414927 373.97249,-1.8235888 M 198.35184,-6.4302163 C 146.80051,-19.602139 264.15211,-49.003099 372.79087,-1.9898595 M 198.93438,-9.7213536 C 150.04268,-19.98183 261.75589,-48.658332 371.49741,-2.2232067 M 199.51688,-13.012493 c -46.07916,-7.334872 59.9397,-35.320437 170.83989,10.5701113 M 200.09944,-16.303625 c -43.32265,-4.4428 57.11376,-31.670373 169.06078,13.608535 M 200.641,-19.541867 c -40.51016,-1.517188 54.13505,-28.034474 167.24071,16.6998749 M 201.22353,-22.833012 c -37.75357,1.374881 51.25321,-24.417927 165.51756,19.7718398 M 201.80608,-26.124156 c -34.94109,4.300497 48.42728,-20.767845 163.64155,22.8296383 M 202.34765,-29.36239 c -32.18453,7.192563 45.54542,-17.151314 161.91837,25.901601 M 202.93017,-32.65353 c -29.37204,10.118178 42.56673,-13.515418 160.04241,28.9593908 M 203.51272,-35.944671 c -26.61549,13.010243 39.74079,-9.865333 158.31921,32.0313627 M 204.15119,-39.202272 c -23.803,15.935847 36.85895,-6.2488 156.49913,35.1226872 M 167.98716,118.26549 c 14.28343,-63.934416 21.4203,-95.900653 35.80063,-159.854424 M 161.65005,112.06475 c 16.52558,-61.118392 24.80403,-91.70307 41.4265,-152.840822 M 156.22986,105.94903 C 174.72809,47.566396 183.95915,18.401034 202.46222,-39.982574 M 151.78138,99.951207 c 20.1712,-55.675534 30.18222,-83.521203 50.35716,-139.19838 m -53.8876,133.286265 c 21.48148,-53.03098 32.27252,-79.556974 53.79869,-132.642488 M 145.69448,88.246211 C 168.31731,37.758506 179.58271,12.523853 202.1135,-37.945454 M 143.86001,82.576419 c 23.30687,-47.986272 34.99068,-71.963122 58.45522,-119.93619 M 142.9984,77.025198 C 166.87742,31.473282 178.92372,8.7206996 202.80761,-36.832178 M 142.95679,71.578365 c 24.14558,-43.145898 36.28969,-64.7554553 60.4401,-107.90232 M 143.54145,66.274654 C 167.78575,25.434178 179.83393,5.0063566 204.08301,-35.835085 M 145.00207,61.10888 C 169.08043,22.49256 181.07358,3.1936024 205.2127,-35.390139 M 147.08896,56.086214 C 170.69571,19.66573 182.5779,1.4620843 206.28638,-34.978729 m -56.44334,86.13252 c 23.12015,-34.311097 34.5858,-51.44777219 57.71083,-85.759847 M 153.2793,46.398019 c 22.32796,-32.230062 33.51487,-48.3720229 55.84769,-80.603048 m -51.78517,75.990386 c 21.36797,-30.249612 32.02643,-45.3916745 53.39922,-75.642256 M 161.92886,37.336162 C 182.22981,8.9989486 192.3598,-5.1432144 212.66076,-33.480433 M 166.99417,33.01495 C 186.01452,6.5433886 195.60109,-6.6853042 214.62145,-33.156871 M 172.64477,28.889754 C 190.27266,4.2167815 199.10705,-8.1461537 216.73492,-32.81913 m -37.9661,57.712645 c 16.12354,-22.9414608 24.20577,-34.4386327 40.32929,-57.380092 m -33.82868,53.532165 c 14.5073,-21.27701222 21.78145,-31.94197 36.23284,-53.252519 m -29.24383,49.619978 c 12.72329,-19.7131755 19.18932,-29.545908 31.91264,-49.25909 m -24.69993,45.76069 C 210.45142,-4.2875867 215.9006,-13.335808 226.88086,-31.53804 M 207.1723,10.631637 c 9.0844,-16.7054719 13.59865,-25.074976 22.62712,-41.813986 M 215.00028,7.5021346 c 7.11761,-15.328682 10.69691,-23.0194636 17.81456,-38.3481486 m -9.5541,35.400496 c 5.09493,-13.9854262 7.68335,-21.031032 12.77826,-35.016454 m -4.37598,32.3087383 c 3.00132,-12.7621373 4.65477,-19.1290253 7.65609,-31.8911533 m 0.96991,29.31758036 c 1.00455,-11.55820436 1.55531,-17.34699036 2.50395,-28.93872636 m 6.36074,26.5857402 c -1.06304,-10.4742512 -1.61504,-15.6849322 -2.71904,-26.1062892 m 11.66962,23.9597 c -3.13067,-9.390296 -4.80039,-14.109302 -7.93105,-23.499609 m 16.96753,21.5594309 c -5.26923,-8.4263179 -7.90383,-12.6394739 -13.17308,-21.0657939 m 22.29544,19.3320221 c -7.2699,-7.5346031 -10.92536,-11.2754471 -18.29218,-18.7906891 m 27.40356,17.282683 c -9.32655,-6.676417 -13.96187,-9.997855 -23.28844,-16.674273 m 32.42973,15.339142 c -11.24533,-5.890496 -16.97238,-8.859599 -28.21777,-14.75009 m 37.40403,13.674268 c -13.17913,-5.19101 -19.8451,-7.793608 -33.02422,-12.984618 m 42.04663,12.120392 c -14.97504,-4.563791 -22.53896,-6.852779 -37.66682,-11.430742 m 46.58136,10.811646 c -16.78596,-4.02301 -25.15095,-6.01774 -42.03376,-10.021392 m 50.88135,9.594531 c -18.40306,-3.520945 -27.68102,-5.288505 -46.18095,-8.790099 m 54.82376,8.627751 c -20.03516,-3.105337 -29.97632,-4.650918 -50.0115,-7.75624 m 58.44956,7.858372 c -21.43255,-2.781335 -32.18975,-4.119108 -53.62233,-6.900439 m 61.89654,7.214179 c -22.73302,-2.476706 -34.12752,-3.731824 -56.86053,-6.208532 m 64.77716,6.772592 c -23.95158,-2.277875 -35.83051,-3.436177 -59.78215,-5.714046 m 67.39711,6.561974 c -24.8795,-2.137136 -37.39568,-3.212789 -62.33116,-5.38346 m 69.68545,6.462344 c -25.72555,-2.102199 -38.58832,-3.153284 -64.31382,-5.255487 m 71.31046,6.584702 c -26.37776,-2.105982 -39.64306,-3.166056 -66.02082,-5.272037 m 72.563,6.8709444 C 365.47112,-11.258354 351.99709,-12.36614 325.20183,-14.567536 m 73.15223,7.3791715 c -27.0749,-2.3690742 -40.66082,-3.5439275 -67.67978,-5.8794695 m 73.36894,8.0512961 C 376.97933,-7.6113847 363.3225,-8.906217 336.2586,-11.50106 m 72.96336,8.8924935 c -26.9151,-2.8928749 -40.35212,-4.3657671 -67.2672,-7.2586437 m 71.89457,9.95567062 C 387.31784,-3.1940765 374.15646,-4.8114988 347.72183,-8.1133903 m 70.20351,11.1879354 c -25.76041,-3.74965984 -38.66106,-5.59804 -64.42145,-9.3476958 M 175.44997,124.59897 c 11.67967,-66.812309 17.56313,-100.227174 29.18684,-167.073014 -21.04643,18.827922 33.88024,-2.612907 154.72004,38.1611172 24.7955,4.25550155 37.1448,6.3929285 61.9403,10.6484311 C 356.99559,-63.355718 12.75243,-5.0181828 175.44997,124.59897 Z" /><g
     id="g13882"
     transform="translate(-54.982605,-34.189234)"><path
       d="M 110.1,303.8"
       id="path13884"
       style="fill:none" /></g></svg>